<?xml version="1.0" encoding="iso-8859-1"?>
<!-- Generator: Adobe Illustrator 21.0.0, SVG Export Plug-In . SVG Version: 6.00 Build 0)  -->
<svg version="1.1" id="Capa_1" xmlns="http://www.w3.org/2000/svg" xmlns:xlink="http://www.w3.org/1999/xlink" x="0px" y="0px"
	 viewBox="0 0 512 512" style="enable-background:new 0 0 512 512;" xml:space="preserve">
<path style="fill:#4D4D4D;" d="M104.988,82.328H405.02c13.766,0,24.925,11.159,24.925,24.925v300.032
	c0,13.765-11.159,24.925-24.925,24.925H104.988c-13.765,0-24.925-11.159-24.925-24.925V107.253
	C80.063,93.488,91.222,82.328,104.988,82.328z"/>
<path style="fill:#3B3B3B;" d="M399.632,82.328h-40.938L151.313,432.21h248.319c16.741,0,30.312-13.571,30.312-30.312V112.64
	C429.944,95.9,416.373,82.328,399.632,82.328z"/>
<rect x="189.6" y="191.87" style="fill:#CCCCCC;" width="130.8" height="130.8"/>
<polygon style="fill:#ADADAD;" points="320.402,322.667 320.402,191.871 293.767,191.871 216.241,322.667 "/>
<g>
	<path style="fill:#EBEBEB;" d="M142.447,110.45c-4.142,0-7.5-3.358-7.5-7.5V7.5c0-4.142,3.358-7.5,7.5-7.5s7.5,3.358,7.5,7.5v95.45
		C149.947,107.093,146.589,110.45,142.447,110.45z"/>
	<path style="fill:#EBEBEB;" d="M199.224,110.45c-4.142,0-7.5-3.358-7.5-7.5V7.5c0-4.142,3.358-7.5,7.5-7.5s7.5,3.358,7.5,7.5v95.45
		C206.724,107.093,203.366,110.45,199.224,110.45z"/>
	<path style="fill:#EBEBEB;" d="M256,110.45c-4.142,0-7.5-3.358-7.5-7.5V7.5c0-4.142,3.358-7.5,7.5-7.5s7.5,3.358,7.5,7.5v95.45
		C263.5,107.093,260.142,110.45,256,110.45z"/>
	<path style="fill:#EBEBEB;" d="M312.777,110.45c-4.142,0-7.5-3.358-7.5-7.5V7.5c0-4.142,3.358-7.5,7.5-7.5s7.5,3.358,7.5,7.5v95.45
		C320.277,107.093,316.919,110.45,312.777,110.45z"/>
	<path style="fill:#EBEBEB;" d="M369.553,110.45c-4.142,0-7.5-3.358-7.5-7.5V7.5c0-4.142,3.358-7.5,7.5-7.5s7.5,3.358,7.5,7.5v95.45
		C377.053,107.093,373.695,110.45,369.553,110.45z"/>
	<path style="fill:#EBEBEB;" d="M142.447,512c-4.142,0-7.5-3.358-7.5-7.5v-95.45c0-4.142,3.358-7.5,7.5-7.5s7.5,3.358,7.5,7.5v95.45
		C149.947,508.642,146.589,512,142.447,512z"/>
	<path style="fill:#EBEBEB;" d="M199.224,512c-4.142,0-7.5-3.358-7.5-7.5v-95.45c0-4.142,3.358-7.5,7.5-7.5s7.5,3.358,7.5,7.5v95.45
		C206.724,508.642,203.366,512,199.224,512z"/>
	<path style="fill:#EBEBEB;" d="M256,512c-4.142,0-7.5-3.358-7.5-7.5v-95.45c0-4.142,3.358-7.5,7.5-7.5s7.5,3.358,7.5,7.5v95.45
		C263.5,508.642,260.142,512,256,512z"/>
	<path style="fill:#EBEBEB;" d="M312.777,512c-4.142,0-7.5-3.358-7.5-7.5v-95.45c0-4.142,3.358-7.5,7.5-7.5s7.5,3.358,7.5,7.5v95.45
		C320.277,508.642,316.919,512,312.777,512z"/>
	<path style="fill:#EBEBEB;" d="M369.553,512c-4.142,0-7.5-3.358-7.5-7.5v-95.45c0-4.142,3.358-7.5,7.5-7.5s7.5,3.358,7.5,7.5v95.45
		C377.053,508.642,373.695,512,369.553,512z"/>
	<path style="fill:#EBEBEB;" d="M504.5,149.947h-95.45c-4.142,0-7.5-3.358-7.5-7.5s3.358-7.5,7.5-7.5h95.45
		c4.142,0,7.5,3.358,7.5,7.5S508.642,149.947,504.5,149.947z"/>
	<path style="fill:#EBEBEB;" d="M504.5,206.724h-95.45c-4.142,0-7.5-3.358-7.5-7.5s3.358-7.5,7.5-7.5h95.45
		c4.142,0,7.5,3.358,7.5,7.5S508.642,206.724,504.5,206.724z"/>
	<path style="fill:#EBEBEB;" d="M504.5,263.5h-95.45c-4.142,0-7.5-3.358-7.5-7.5s3.358-7.5,7.5-7.5h95.45c4.142,0,7.5,3.358,7.5,7.5
		S508.642,263.5,504.5,263.5z"/>
	<path style="fill:#EBEBEB;" d="M504.5,320.277h-95.45c-4.142,0-7.5-3.358-7.5-7.5s3.358-7.5,7.5-7.5h95.45
		c4.142,0,7.5,3.358,7.5,7.5S508.642,320.277,504.5,320.277z"/>
	<path style="fill:#EBEBEB;" d="M504.5,377.053h-95.45c-4.142,0-7.5-3.358-7.5-7.5s3.358-7.5,7.5-7.5h95.45
		c4.142,0,7.5,3.358,7.5,7.5S508.642,377.053,504.5,377.053z"/>
	<path style="fill:#EBEBEB;" d="M102.951,149.947H7.5c-4.142,0-7.5-3.358-7.5-7.5s3.358-7.5,7.5-7.5h95.451
		c4.142,0,7.5,3.358,7.5,7.5S107.093,149.947,102.951,149.947z"/>
	<path style="fill:#EBEBEB;" d="M102.951,206.724H7.5c-4.142,0-7.5-3.358-7.5-7.5s3.358-7.5,7.5-7.5h95.451
		c4.142,0,7.5,3.358,7.5,7.5S107.093,206.724,102.951,206.724z"/>
	<path style="fill:#EBEBEB;" d="M102.951,263.5H7.5c-4.142,0-7.5-3.358-7.5-7.5s3.358-7.5,7.5-7.5h95.451c4.142,0,7.5,3.358,7.5,7.5
		S107.093,263.5,102.951,263.5z"/>
	<path style="fill:#EBEBEB;" d="M102.951,320.277H7.5c-4.142,0-7.5-3.358-7.5-7.5s3.358-7.5,7.5-7.5h95.451
		c4.142,0,7.5,3.358,7.5,7.5S107.093,320.277,102.951,320.277z"/>
	<path style="fill:#EBEBEB;" d="M102.951,377.053H7.5c-4.142,0-7.5-3.358-7.5-7.5s3.358-7.5,7.5-7.5h95.451
		c4.142,0,7.5,3.358,7.5,7.5S107.093,377.053,102.951,377.053z"/>
</g>
<g>
</g>
<g>
</g>
<g>
</g>
<g>
</g>
<g>
</g>
<g>
</g>
<g>
</g>
<g>
</g>
<g>
</g>
<g>
</g>
<g>
</g>
<g>
</g>
<g>
</g>
<g>
</g>
<g>
</g>
</svg>
